# xmcd CD database file
#
# Track frame offsets:
#	150
#	14444
#	30584
#	47374
#	64126
#	79777
#	96311
#	112008
#	128129
#	142839
#	158590
#	172862
#	187747
#	201177
#	218854
#
# Disc length: 3128 seconds
#
# Revision: 1
# Processed by: cddbd v1.5.2PL0 Copyright (c) Steve Scherf et al.
# Submitted via: CDex 1.51
#
DISCID=be0c360f
DTITLE=Chase Rice - Ignite The Night
DYEAR=2014
DGENRE=Country
TTITLE0=Ready Set Roll
TTITLE1=Do It Like This
TTITLE2=Beach Town
TTITLE3=Mmm Girl
TTITLE4=Beer With The Boys
TTITLE5=Carolina Can
TTITLE6=We Goin' Out
TTITLE7=Gonna Wanna Tonight
TTITLE8=Look At My Truck
TTITLE9=U Turn
TTITLE10=50 Shades Of Crazy
TTITLE11=What's Your Name
TTITLE12=How She Rolls
TTITLE13=Jack Daniels and Jesus
TTITLE14=Whoa
EXTD=YEAR: 2014
EXTT0=
EXTT1=
EXTT2=
EXTT3=
EXTT4=
EXTT5=
EXTT6=
EXTT7=
EXTT8=
EXTT9=
EXTT10=
EXTT11=
EXTT12=
EXTT13=
EXTT14=
PLAYORDER=
